<svg width="579" height="641" viewBox="0 0 579 641" fill="none" xmlns="http://www.w3.org/2000/svg">
<g clip-path="url(#clip0_27_246)">
<path d="M393.845 397.111C709.547 608.135 606.942 686.768 196.923 615.15C89.7904 596.438 0 517.531 0 397.111C0 276.691 88.1653 179.072 196.923 179.072C305.68 179.072 293.663 330.146 393.845 397.111Z" fill="#3F3D56"/>
<path opacity="0.1" d="M422.071 602.691C490.951 602.691 546.789 597.7 546.789 591.543C546.789 585.386 490.951 580.395 422.071 580.395C353.191 580.395 297.353 585.386 297.353 591.543C297.353 597.7 353.191 602.691 422.071 602.691Z" fill="black"/>
<path opacity="0.1" d="M176.1 235.239C212.608 235.239 242.204 230.248 242.204 224.091C242.204 217.934 212.608 212.943 176.1 212.943C139.592 212.943 109.996 217.934 109.996 224.091C109.996 230.248 139.592 235.239 176.1 235.239Z" fill="black"/>
<path opacity="0.1" d="M172.635 251.534C144.272 251.529 116.486 259.539 92.487 274.64C68.4876 289.741 49.2542 311.317 37.0083 336.875C51.085 321.339 68.2677 308.926 87.4462 300.439C106.625 291.951 127.372 287.578 148.348 287.601C231.364 287.601 298.666 354.836 298.666 437.769C298.7 460.206 293.679 482.363 283.975 502.598C309.106 474.997 323.007 439.013 322.953 401.703C322.953 318.769 255.651 251.534 172.635 251.534Z" fill="black"/>
<path opacity="0.3" d="M298.666 437.114C298.7 459.55 293.679 481.707 283.975 501.942C269.899 517.478 252.716 529.89 233.538 538.378C214.359 546.865 193.611 551.239 172.635 551.215C89.6194 551.215 22.3178 483.981 22.3178 401.047C22.2839 378.61 27.3048 356.453 37.0083 336.219C51.0849 320.683 68.2676 308.27 87.4461 299.783C106.625 291.295 127.372 286.922 148.348 286.945C231.364 286.945 298.666 354.18 298.666 437.114Z" fill="#6C63FF"/>
<path d="M172.636 551.953C89.3428 551.953 21.5792 484.257 21.5792 401.047C21.5186 378.497 26.5657 356.225 36.3423 335.9C48.6484 310.216 67.9764 288.535 92.0936 273.36C116.211 258.185 144.133 250.135 172.636 250.141C255.928 250.141 323.692 317.837 323.692 401.047C323.693 420.865 319.787 440.489 312.196 458.798C304.605 477.107 293.478 493.744 279.451 507.757C265.424 521.77 248.771 532.886 230.444 540.469C212.116 548.052 192.473 551.954 172.636 551.953ZM172.636 251.616C115.403 251.616 62.4273 284.95 37.6745 336.538C27.9935 356.664 22.9961 378.718 23.0563 401.047C23.0563 483.443 90.1572 550.477 172.636 550.477C192.279 550.479 211.73 546.615 229.879 539.106C248.027 531.596 264.517 520.59 278.407 506.713C292.297 492.837 303.315 476.364 310.831 458.233C318.348 440.103 322.216 420.671 322.215 401.047C322.215 318.651 255.114 251.616 172.636 251.616V251.616Z" fill="white"/>
<path d="M516.536 553.86C505.619 568.124 506.867 587.401 506.867 587.401C506.867 587.401 525.816 583.552 536.734 569.288C547.651 555.024 546.403 535.747 546.403 535.747C546.403 535.747 527.454 539.596 516.536 553.86Z" fill="#D0CDE1"/>
<path d="M523.691 557.063C521.572 574.894 507.23 587.852 507.23 587.852C507.23 587.852 496.324 571.9 498.442 554.069C500.561 536.239 514.903 523.281 514.903 523.281C514.903 523.281 525.809 539.233 523.691 557.063Z" fill="#6C63FF"/>
<path d="M127.649 139.373C161.905 139.373 189.675 111.631 189.675 77.4088C189.675 43.1868 161.905 15.4444 127.649 15.4444C93.3926 15.4444 65.6226 43.1868 65.6226 77.4088C65.6226 111.631 93.3926 139.373 127.649 139.373Z" fill="#FF6584"/>
<path d="M262.126 140.586C262.156 202.48 225.335 224.106 179.904 224.128C178.849 224.129 177.798 224.118 176.753 224.095C174.648 224.05 172.564 223.955 170.502 223.81C129.498 220.93 97.6283 198.227 97.6004 140.666C97.5714 81.0964 173.744 5.88418 179.457 0.32296C179.462 0.32296 179.462 0.322959 179.467 0.317904C179.684 0.105955 179.795 0 179.795 0C179.795 0 262.096 78.6963 262.126 140.586Z" fill="#6C63FF"/>
<path d="M176.905 214.662L206.971 172.652L176.832 219.273L176.753 224.095C174.648 224.05 172.564 223.955 170.502 223.81L173.714 161.889L173.688 161.41L173.744 161.319L174.049 155.468L143.788 108.76L174.138 151.085L174.214 152.325L176.64 105.541L150.73 57.2731L176.954 97.3196L179.457 0.322965L179.466 0.000167847L179.467 0.31791L179.08 76.8098L204.83 46.473L178.972 83.3973L178.311 125.288L202.36 85.0757L178.218 131.446L177.85 154.74L212.752 98.765L177.718 162.865L176.905 214.662Z" fill="#3F3D56"/>
<path d="M423.179 176.048C415.294 162.739 399.696 162.119 399.696 162.119C399.696 162.119 384.497 160.177 374.746 180.446C365.658 199.339 353.115 217.58 372.727 222.002L376.269 210.988L378.463 222.822C381.256 223.023 384.057 223.071 386.854 222.966C407.857 222.288 427.859 223.164 427.215 215.635C426.359 205.626 430.765 188.853 423.179 176.048Z" fill="#2F2E41"/>
<path d="M388.396 300.929L390.424 321.189L437.407 316.125L438.421 300.929H388.396Z" fill="#A0616A"/>
<path d="M383.326 312.072L381.974 323.891C381.974 323.891 366.425 345.502 367.777 382.646C369.129 419.79 346.483 584.913 362.707 586.263C378.932 587.614 408 589.64 409.352 584.575C410.704 579.51 413.409 387.374 413.409 387.374C413.409 387.374 420.507 584.815 432.675 585.49C444.843 586.165 485.743 587.516 485.743 582.451C485.743 577.386 449.914 351.242 449.914 351.242L444.167 332.333L438.421 309.033C438.421 309.033 402.592 315.111 392.79 312.748C382.988 310.384 383.326 312.072 383.326 312.072Z" fill="#2F2E41"/>
<path d="M399.55 218.537C411.497 218.537 421.183 208.861 421.183 196.925C421.183 184.99 411.497 175.314 399.55 175.314C387.603 175.314 377.917 184.99 377.917 196.925C377.917 208.861 387.603 218.537 399.55 218.537Z" fill="#A0616A"/>
<path d="M437.407 232.719L433.3 238.689L430.671 242.508L426.253 248.927L404.282 250.616C404.282 250.616 398.945 248.893 392.787 246.378C390.512 245.446 388.122 244.406 385.851 243.302C377.039 239.027 369.968 233.81 377.918 230.355C379.329 229.75 380.685 229.022 381.97 228.181C383.139 227.417 384.228 226.537 385.219 225.553C387.255 223.515 388.763 221.01 389.611 218.258C390.459 215.505 390.622 212.587 390.086 209.757L411.38 206.718C410.762 212.114 416.133 218 422.153 222.805C424.13 224.389 426.182 225.851 428.112 227.141C433.172 230.524 437.407 232.719 437.407 232.719Z" fill="#A0616A"/>
<path d="M408.338 239.135C408.338 239.135 387.551 235.589 382.819 228.16C382.819 228.16 362.369 230.693 364.059 241.498C365.749 252.304 382.65 311.397 382.65 311.397C382.65 311.397 424.901 303.293 440.449 309.371L449.914 234.07C449.914 234.07 446.533 226.641 440.111 228.667C433.689 230.693 431.154 228.836 431.154 228.836C431.154 228.836 423.887 239.135 408.338 239.135Z" fill="#D0CDE1"/>
<path d="M427.267 357.658C427.267 357.658 441.801 373.867 433.689 376.568C425.577 379.269 415.775 365.762 415.775 365.762L427.267 357.658Z" fill="#A0616A"/>
<path d="M431.999 359.009C431.999 359.009 420.169 367.113 424.563 372.516C428.957 377.919 444.167 367.788 444.167 365.762C444.167 363.736 431.999 359.009 431.999 359.009Z" fill="#A0616A"/>
<path d="M402.93 315.111L393.128 316.8L386.706 269.188C387.076 260.55 386.79 251.896 385.851 243.302C385.134 237.561 383.937 232.044 381.97 228.181C383.139 227.417 384.228 226.537 385.218 225.553C387.571 229.278 391.864 237.166 392.786 246.378C393.028 248.685 393.029 251.01 392.79 253.317C391.1 269.188 391.438 272.227 391.438 272.227L402.93 315.111Z" fill="#2F2E41"/>
<path d="M380.284 231.031C380.284 231.031 364.397 226.641 363.045 236.096C361.693 245.551 363.383 269.863 367.101 278.98C370.819 288.097 383.664 317.813 383.664 317.813C383.664 317.813 406.986 347.528 408 354.619C409.014 361.71 414.085 369.139 414.085 369.139L430.309 358.671L398.536 304.981L384.678 267.837C384.678 267.837 390.424 234.07 380.284 231.031Z" fill="#D0CDE1"/>
<path d="M442.477 232.381L449.914 234.07C449.914 234.07 456.674 263.11 453.97 278.643C451.266 294.176 450.928 299.578 450.928 299.578L448.562 343.814C448.562 343.814 449.238 372.178 444.505 367.788C439.773 363.399 430.309 361.373 430.309 361.373C430.309 361.373 431.323 348.879 435.041 345.84C435.041 345.84 439.435 322.54 436.731 312.41C434.027 302.28 442.477 232.381 442.477 232.381Z" fill="#D0CDE1"/>
<path d="M445.181 265.136L436.562 314.942L431.323 312.748L440.449 265.136L430.671 242.508L422.153 222.805C424.13 224.388 426.182 225.851 428.112 227.14L433.3 238.689L445.181 265.136Z" fill="#2F2E41"/>
<path d="M419.693 174.765L404.283 166.701L383.002 170L378.599 189.427L389.559 189.005L392.621 181.868V188.888L397.678 188.693L400.613 177.33L402.448 189.427L420.427 189.06L419.693 174.765Z" fill="#2F2E41"/>
<path d="M389.25 591.543C395.051 591.543 399.753 589.782 399.753 587.609C399.753 585.436 395.051 583.674 389.25 583.674C383.45 583.674 378.748 585.436 378.748 587.609C378.748 589.782 383.45 591.543 389.25 591.543Z" fill="#2F2E41"/>
<path d="M460.142 591.543C465.943 591.543 470.645 589.782 470.645 587.609C470.645 585.436 465.943 583.674 460.142 583.674C454.342 583.674 449.64 585.436 449.64 587.609C449.64 589.782 454.342 591.543 460.142 591.543Z" fill="#2F2E41"/>
<path d="M194.652 478.717C183.909 485.701 171.528 489.766 158.733 490.51C145.937 491.255 133.168 488.654 121.686 482.963L123.311 479.65C137.151 486.442 152.838 488.517 167.971 485.555C183.103 482.594 196.848 474.76 207.1 463.253C217.352 451.746 223.547 437.2 224.737 421.841C225.927 406.483 222.046 391.157 213.688 378.212C205.33 365.266 192.956 355.413 178.46 350.161C163.963 344.909 148.144 344.547 133.422 349.131C118.701 353.715 105.888 362.993 96.9466 375.543C88.0049 388.093 83.4262 403.225 83.9116 418.622L80.2202 418.736C79.8113 405.78 82.8085 392.944 88.913 381.507C95.0175 370.07 104.016 360.431 115.012 353.55C126.008 346.67 138.617 342.789 151.582 342.295C164.547 341.8 177.415 344.709 188.904 350.731C200.393 356.753 210.102 365.678 217.062 376.617C224.022 387.556 227.99 400.126 228.572 413.075C229.153 426.023 226.327 438.898 220.376 450.415C214.424 461.933 205.555 471.691 194.652 478.717Z" fill="white"/>
<path d="M161.247 412C150.327 414.415 135.793 415.886 125.203 414.35L138.497 424.463L101.281 448.443L103.282 451.543L140.499 427.564L144.24 443.837C147.207 433.565 154.543 420.946 161.247 412Z" fill="white"/>
</g>
<defs>
<clipPath id="clip0_27_246">
<rect width="579" height="641" fill="white"/>
</clipPath>
</defs>
</svg>
