<svg width="649" height="388" viewBox="0 0 649 388" fill="none" xmlns="http://www.w3.org/2000/svg">
<g clip-path="url(#clip0_26_2)">
<path d="M496.89 383.612C488.581 376.592 483.534 365.501 484.857 354.704C486.181 343.907 494.379 333.981 505.012 331.688C515.646 329.396 527.768 335.742 530.998 346.13C532.775 326.104 534.823 305.238 545.471 288.184C555.112 272.742 571.81 261.693 589.908 259.716C608.005 257.739 627.059 265.205 638.346 279.489C649.633 293.772 652.396 314.538 644.491 330.936C638.668 343.017 627.94 352.007 616.699 359.321C580.376 382.757 536.811 392.287 494.02 386.159L496.89 383.612Z" fill="#F2F2F2"/>
<path d="M620.45 265.619C605.517 277.781 591.818 291.384 579.551 306.23C560.352 329.385 544.817 355.346 533.485 383.208C532.656 385.241 535.956 386.126 536.777 384.116C555.317 338.834 584.915 298.922 622.863 268.032C624.568 266.645 622.14 264.243 620.45 265.619Z" fill="white"/>
<path d="M208.924 381.705C220.336 372.062 227.268 356.829 225.45 341.999C223.632 327.169 212.372 313.536 197.767 310.387C183.162 307.238 166.513 315.955 162.076 330.222C159.635 302.716 156.822 274.058 142.197 250.634C128.955 229.424 106.02 214.248 81.1632 211.533C56.3064 208.818 30.1354 219.072 14.6331 238.691C-0.869135 258.309 -4.6648 286.831 6.19258 309.354C14.1908 325.947 28.9264 338.295 44.3657 348.341C93.6222 380.391 154.725 393.758 212.865 385.202" fill="#F2F2F2"/>
<path d="M39.2136 219.641C59.7235 236.346 78.5392 255.029 95.3885 275.42C112.241 295.791 127.077 317.748 139.689 340.983C146.739 354.017 153.072 367.426 158.66 381.15C159.799 383.942 155.265 385.157 154.139 382.396C144.241 358.201 131.996 335.033 117.579 313.226C103.232 291.498 86.8113 271.213 68.5471 252.656C58.2168 242.165 47.3175 232.25 35.8985 222.956C33.5579 221.05 36.8923 217.75 39.2136 219.641L39.2136 219.641Z" fill="white"/>
<path d="M465.863 387.151H193.581V107.791C193.581 48.3545 241.937 0 301.375 0H358.069C417.507 0 465.863 48.3545 465.863 107.791V387.151Z" fill="#F2F2F2"/>
<path d="M409.168 387.151H193.581V107.79C193.522 85.016 200.733 62.8171 214.167 44.4258C214.662 43.7509 215.156 43.0847 215.665 42.4258C222.163 33.9041 229.895 26.3991 238.607 20.1586C239.099 19.8006 239.593 19.4487 240.095 19.0969C247.385 14.0523 255.27 9.92845 263.572 6.81921C264.065 6.63236 264.567 6.44513 265.069 6.26556C272.578 3.58615 280.361 1.75076 288.275 0.793292C288.766 0.726268 289.27 0.67382 289.773 0.621372C297.486 -0.203259 305.265 -0.203259 312.977 0.621372C313.48 0.67382 313.984 0.726261 314.48 0.794009C322.392 1.75154 330.174 3.5867 337.68 6.26559C338.182 6.44517 338.684 6.63238 339.179 6.8196C347.378 9.88962 355.171 13.9519 362.383 18.9159C362.884 19.2601 363.386 19.6119 363.88 19.9638C368.763 23.4494 373.35 27.3327 377.594 31.5738C380.997 34.9757 384.168 38.6019 387.086 42.428C387.594 43.0848 388.087 43.7509 388.582 44.4248C402.016 62.8162 409.228 85.0155 409.168 107.79V387.151Z" fill="#CCCCCC"/>
<path d="M391.638 262.203C398.23 262.203 403.573 256.86 403.573 250.268C403.573 243.676 398.23 238.333 391.638 238.333C385.046 238.333 379.702 243.676 379.702 250.268C379.702 256.86 385.046 262.203 391.638 262.203Z" fill="#6C63FF"/>
<path d="M443.557 378.783H434.412L430.06 343.509L443.559 343.509L443.557 378.783Z" fill="#FFB8B8"/>
<path d="M427.879 376.17H445.516V387.275H416.773C416.773 385.817 417.061 384.373 417.619 383.025C418.177 381.678 418.995 380.454 420.026 379.423C421.057 378.391 422.282 377.573 423.629 377.015C424.976 376.457 426.42 376.17 427.879 376.17Z" fill="#2F2E41"/>
<path d="M489.062 378.783H479.916L475.565 343.509L489.063 343.509L489.062 378.783Z" fill="#FFB8B8"/>
<path d="M473.383 376.17H491.021V387.275H462.278C462.278 385.817 462.565 384.373 463.123 383.025C463.682 381.678 464.5 380.454 465.531 379.423C466.562 378.391 467.786 377.573 469.134 377.015C470.481 376.457 471.925 376.17 473.383 376.17Z" fill="#2F2E41"/>
<path d="M397.678 252.632C397.021 251.663 396.583 250.561 396.397 249.405C396.211 248.248 396.281 247.064 396.602 245.938C396.922 244.811 397.486 243.768 398.254 242.883C399.021 241.998 399.973 241.292 401.043 240.814L432.132 155.129L447.43 163.477L411.933 245.361C412.616 247.211 412.597 249.248 411.878 251.085C411.16 252.922 409.793 254.432 408.036 255.328C406.278 256.224 404.254 256.445 402.345 255.948C400.436 255.451 398.776 254.271 397.678 252.632Z" fill="#FFB8B8"/>
<path d="M484.39 268.733C483.374 268.15 482.497 267.352 481.823 266.394C481.149 265.436 480.693 264.342 480.487 263.188C480.281 262.035 480.331 260.851 480.632 259.719C480.934 258.587 481.48 257.534 482.232 256.636L472.601 165.996L490.01 166.791L494.013 255.948C495.438 257.311 496.314 259.15 496.474 261.116C496.633 263.082 496.067 265.039 494.88 266.614C493.694 268.19 491.971 269.277 490.038 269.667C488.104 270.057 486.095 269.725 484.39 268.733Z" fill="#FFB8B8"/>
<path d="M456.617 139.258C466.736 139.258 474.939 131.055 474.939 120.936C474.939 110.818 466.736 102.615 456.617 102.615C446.498 102.615 438.295 110.818 438.295 120.936C438.295 131.055 446.498 139.258 456.617 139.258Z" fill="#FFB8B8"/>
<path d="M484.273 248.119H429.036L429.102 247.689C429.202 247.046 438.947 183.209 431.759 162.325C431.038 160.272 431.102 158.026 431.937 156.017C432.773 154.009 434.323 152.381 436.287 151.446H436.287C446.561 146.608 466.281 140.651 482.926 155.108C485.375 157.27 487.288 159.973 488.512 163.002C489.737 166.031 490.24 169.303 489.982 172.56L484.273 248.119Z" fill="#6C63FF"/>
<path d="M439.645 192.643L414.776 187.598L426.433 159.976C427.131 157.3 428.861 155.011 431.244 153.609C433.628 152.208 436.47 151.809 439.147 152.5C441.824 153.191 444.118 154.916 445.525 157.296C446.932 159.676 447.338 162.517 446.653 165.196L439.645 192.643Z" fill="#6C63FF"/>
<path d="M471.495 202.011L470 167.74C468.866 161.298 472.554 155.208 478.226 154.213C483.9 153.221 489.439 157.689 490.578 164.179L496.198 196.201L471.495 202.011Z" fill="#6C63FF"/>
<path d="M482.435 244.016C491.323 277.865 492.293 320.901 489.895 367.844L477.959 366.352L456.326 276.838L444.39 367.844L430.963 367.098C426.951 317.843 423.046 275.558 429.471 247.746L482.435 244.016Z" fill="#2F2E41"/>
<path d="M468.689 135.095C465.271 138.736 458.924 136.782 458.478 131.808C458.443 131.422 458.446 131.033 458.486 130.647C458.716 128.444 459.989 126.444 459.684 124.118C459.615 123.539 459.399 122.987 459.057 122.515C456.333 118.867 449.939 124.146 447.369 120.844C445.793 118.82 447.645 115.632 446.436 113.369C444.839 110.383 440.111 111.856 437.146 110.221C433.846 108.401 434.044 103.339 436.215 100.26C438.864 96.5053 443.508 94.5017 448.094 94.2129C452.68 93.9242 457.234 95.1638 461.516 96.8323C466.38 98.728 471.204 101.348 474.198 105.625C477.838 110.827 478.189 117.82 476.368 123.902C475.26 127.602 471.481 132.122 468.689 135.095Z" fill="#2F2E41"/>
<path d="M626.607 387.631H75.8566C75.6215 387.63 75.3962 387.536 75.2302 387.37C75.0642 387.203 74.9709 386.978 74.9709 386.742C74.9709 386.507 75.0642 386.282 75.2302 386.115C75.3962 385.949 75.6215 385.855 75.8566 385.854H626.607C626.842 385.855 627.067 385.949 627.233 386.115C627.399 386.282 627.493 386.507 627.493 386.742C627.493 386.978 627.399 387.203 627.233 387.37C627.067 387.536 626.842 387.63 626.607 387.631Z" fill="#3F3D56"/>
<path d="M349.863 306.215H252.886C251.609 306.221 250.381 305.721 249.472 304.824C248.563 303.927 248.047 302.706 248.037 301.429V84.9757C248.047 83.6986 248.563 82.4775 249.472 81.5804C250.381 80.6832 251.609 80.1833 252.886 80.1901H349.863C351.14 80.1833 352.368 80.6832 353.277 81.5804C354.186 82.4775 354.702 83.6986 354.712 84.9757V301.429C354.702 302.706 354.186 303.927 353.277 304.824C352.368 305.721 351.14 306.221 349.863 306.215Z" fill="white"/>
<path d="M354.712 150.228H248.037V151.72H354.712V150.228Z" fill="#CCCCCC"/>
<path d="M355.085 235.349H248.41V236.841H355.085V235.349Z" fill="#CCCCCC"/>
<path d="M283.098 80.1902H281.606V306.961H283.098V80.1902Z" fill="#CCCCCC"/>
<path d="M320.397 80.1902H318.905V306.961H320.397V80.1902Z" fill="#CCCCCC"/>
</g>
<defs>
<clipPath id="clip0_26_2">
<rect width="649" height="388" fill="white"/>
</clipPath>
</defs>
</svg>
